<svg width="24" height="24" viewBox="0 0 24 24" fill="none" xmlns="http://www.w3.org/2000/svg">
<path d="M12.727 3.68725C12.8172 3.59178 12.8877 3.47947 12.9345 3.35674C12.9814 3.23401 13.0035 3.10327 12.9998 2.97196C12.9961 2.84066 12.9666 2.71138 12.9129 2.59149C12.8592 2.47161 12.7824 2.36347 12.687 2.27325C12.5915 2.18303 12.4792 2.1125 12.3565 2.06569C12.2337 2.01887 12.103 1.99669 11.9717 2.0004C11.8404 2.00411 11.7111 2.03365 11.5912 2.08733C11.4713 2.14101 11.3632 2.21778 11.273 2.31325L2.77298 11.3132C2.59744 11.4989 2.49963 11.7447 2.49963 12.0002C2.49963 12.2558 2.59744 12.5016 2.77298 12.6872L11.273 21.6882C11.3626 21.7858 11.4707 21.8646 11.591 21.92C11.7114 21.9754 11.8415 22.0064 11.9739 22.0111C12.1063 22.0158 12.2383 21.9942 12.3623 21.9474C12.4862 21.9007 12.5997 21.8298 12.696 21.7388C12.7923 21.6479 12.8696 21.5387 12.9233 21.4176C12.9771 21.2965 13.0063 21.166 13.0092 21.0335C13.0121 20.9011 12.9886 20.7694 12.9402 20.6461C12.8917 20.5228 12.8192 20.4103 12.727 20.3153L4.87498 12.0002L12.727 3.68725Z" fill="#537FF1"/>
</svg>
