<svg width="24" height="24" viewBox="0 0 24 24" fill="none" xmlns="http://www.w3.org/2000/svg">
<path d="M9.25043 9.3201C9.46473 9.10133 9.52723 9.0924 10.8755 9.0924C12.0899 9.0924 12.1301 9.09687 12.3086 9.18616C12.5676 9.31563 12.6792 9.49868 12.6792 9.79334C12.6792 10.0567 12.5721 10.2398 12.3399 10.3916C12.2149 10.472 12.139 10.4764 10.9514 10.4853C10.2192 10.4898 9.63438 10.4764 9.54509 10.4496C9.08524 10.3202 8.91559 9.6594 9.25043 9.3201ZM11.9917 13.5391C9.58527 13.5391 9.50044 13.548 9.304 13.7221C9.14774 13.8605 9.04952 14.1418 9.07631 14.3427C9.10756 14.5525 9.29061 14.7936 9.48705 14.8785C9.58527 14.9231 10.1166 14.9544 12.0006 14.932L14.1391 14.9052L14.5498 14.8383C14.9517 14.6106 15.0186 14.0614 14.6883 13.7489C14.4516 13.5391 14.465 13.5391 11.9917 13.5391ZM21.9655 19.3475C21.8092 20.6154 20.9386 21.5976 19.6841 21.9146C19.3626 21.995 19.251 21.9994 11.9649 21.995C4.91982 21.995 4.55819 21.9905 4.28585 21.9146C3.91083 21.8164 3.58938 21.669 3.29025 21.4681C3.04024 21.2985 2.66968 20.9413 2.53128 20.736C2.36163 20.4859 2.16519 20.0529 2.08483 19.7538C2.00446 19.4546 2 19.3341 2 12.0122C2 4.73054 2 4.57428 2.08036 4.2573C2.36163 3.15455 3.23668 2.31075 4.36621 2.06074C4.69212 1.98931 19.193 1.97591 19.5457 2.04735C20.4922 2.23932 21.2377 2.81078 21.6708 3.67244C22.0146 4.35552 21.9833 3.60547 21.9967 11.7354C22.0056 16.9054 21.9967 19.0796 21.9655 19.3475ZM18.1527 11.0791C18.1036 10.8559 17.9652 10.6505 17.809 10.5657C17.7599 10.5389 17.4518 10.5077 17.117 10.4898C16.5634 10.463 16.5009 10.4541 16.3223 10.3514C16.0455 10.1907 15.9696 10.0121 15.9651 9.5344C15.9651 8.62363 15.5856 7.77536 14.8356 7.01193C14.2998 6.46725 13.706 6.09669 13.023 5.89132C12.8622 5.84221 12.4962 5.82436 11.2729 5.81096C9.35758 5.78864 8.92898 5.82882 8.27716 6.08776C7.07173 6.56547 6.21007 7.57892 5.89309 8.87364C5.83505 9.11473 5.82165 9.50761 5.80826 11.7443C5.7904 14.5481 5.80826 14.9633 5.98684 15.5169C6.4199 16.8875 7.64319 17.901 8.87094 18.1242C9.28168 18.2001 14.3266 18.2179 14.84 18.1465C15.7374 18.026 16.4428 17.6643 17.1036 16.9902C17.5813 16.5036 17.8804 15.9723 18.0768 15.2713C18.2197 14.7847 18.2063 11.3247 18.1527 11.0791Z" fill="currentColor"/>
</svg>
