<svg width="24" height="24" viewBox="0 0 24 24" fill="none" xmlns="http://www.w3.org/2000/svg">
<path d="M3 4C3 3.44772 3.44772 3 4 3H18C19.6569 3 21 4.34315 21 6V16C21 16.5523 20.5523 17 20 17H4C3.44772 17 3 16.5523 3 16V4Z" fill="white"/>
<path d="M10.5 3H4.5C4.10218 3 3.72064 3.15804 3.43934 3.43934C3.15804 3.72064 3 4.10218 3 4.5V15.5C3 15.8978 3.15804 16.2794 3.43934 16.5607C3.72064 16.842 4.10218 17 4.5 17H19.5C19.8978 17 20.2794 16.842 20.5607 16.5607C20.842 16.2794 21 15.8978 21 15.5V10.5M12 17V21" stroke="#7D83FF" stroke-linecap="round" stroke-linejoin="round"/>
<path d="M16 3L14 5L16 7M19 3L21 5L19 7M7 21H17" stroke="#7D83FF" stroke-linecap="round" stroke-linejoin="round"/>
</svg>
